<?xml version="1.0" encoding="utf-8"?>
<!-- Generator: Adobe Illustrator 24.0.0, SVG Export Plug-In . SVG Version: 6.00 Build 0)  -->
<svg version="1.1" id="Layer_1" xmlns="http://www.w3.org/2000/svg" xmlns:xlink="http://www.w3.org/1999/xlink" x="0px" y="0px"
	 viewBox="0 0 451 524" style="enable-background:new 0 0 451 524;" xml:space="preserve">
<style type="text/css">
	.st0{fill:#A6A6A6; display: none}
	.st1{fill:#00D4B5;}
	.st2{fill:#ffffff;}
</style>
<g>
	<path class="st0" d="M103.22,346.74c5.79,5.48,8.68,12.26,8.68,20.32s-2.89,14.84-8.68,20.32c-5.79,5.48-12.83,8.22-21.12,8.22
		s-15.3-2.74-21.03-8.22c-5.73-5.48-8.6-12.26-8.6-20.32s2.87-14.84,8.6-20.32c5.73-5.48,12.74-8.22,21.03-8.22
		S97.43,341.26,103.22,346.74z M71.33,355.97c-2.78,2.84-4.17,6.54-4.17,11.1c0,4.62,1.39,8.33,4.17,11.14
		c2.78,2.81,6.4,4.22,10.85,4.22c4.34,0,7.93-1.41,10.77-4.22c2.84-2.81,4.26-6.52,4.26-11.14c0-4.56-1.42-8.26-4.26-11.1
		c-2.84-2.84-6.43-4.26-10.77-4.26C77.74,351.71,74.12,353.13,71.33,355.97z"/>
	<path class="st0" d="M169.33,391.95l-17.78-23.3c-0.37-0.48-1.14-0.22-1.14,0.39v18.81c0,3.74-3.03,6.77-6.77,6.77h-0.82
		c-3.74,0-6.77-3.03-6.77-6.77v-41.55c0-3.74,3.03-6.77,6.77-6.77h0.82c3.74,0,6.77,3.03,6.77,6.77v16.24
		c0,0.61,0.79,0.87,1.15,0.37l15.02-20.6c1.27-1.75,3.31-2.78,5.47-2.78h0.01c5.52,0,8.72,6.26,5.49,10.73l-10.91,15.09
		c-0.16,0.23-0.16,0.53,0.01,0.76l13.45,17.63c3.4,4.46,0.22,10.88-5.38,10.88h0C172.6,394.61,170.61,393.63,169.33,391.95z"/>
	<path class="st0" d="M246.91,352.46h-10.39v36.02c0,3.39-2.75,6.13-6.13,6.13h-2.09c-3.39,0-6.13-2.75-6.13-6.13v-36.02h-10.39
		c-3.39,0-6.13-2.75-6.13-6.13v-0.67c0-3.39,2.75-6.13,6.13-6.13h35.14c3.39,0,6.13,2.75,6.13,6.13v0.67
		C253.05,349.72,250.3,352.46,246.91,352.46z"/>
	<path class="st0" d="M284.38,394.61L284.38,394.61c-3.96,0-7.18-3.21-7.18-7.18V346.7c0-3.96,3.21-7.18,7.18-7.18l0,0
		c3.96,0,7.18,3.21,7.18,7.18v40.73C291.55,391.4,288.34,394.61,284.38,394.61z"/>
	<path class="st0" d="M366.45,346.74c5.79,5.48,8.68,12.26,8.68,20.32s-2.89,14.84-8.68,20.32c-5.79,5.48-12.83,8.22-21.12,8.22
		s-15.3-2.74-21.03-8.22c-5.73-5.48-8.6-12.26-8.6-20.32s2.86-14.84,8.6-20.32c5.73-5.48,12.74-8.22,21.03-8.22
		S360.66,341.26,366.45,346.74z M334.57,355.97c-2.78,2.84-4.17,6.54-4.17,11.1c0,4.62,1.39,8.33,4.17,11.14
		c2.78,2.81,6.4,4.22,10.85,4.22c4.34,0,7.93-1.41,10.77-4.22c2.84-2.81,4.26-6.52,4.26-11.14c0-4.56-1.42-8.26-4.26-11.1
		c-2.84-2.84-6.43-4.26-10.77-4.26C340.97,351.71,337.35,353.13,334.57,355.97z"/>
</g>
<!-- <g>
	<path d="M55.34,426.73h5.71c3.18,0,4.58,1.81,4.58,4.14c0,1.64-0.65,2.87-2.16,3.42c2.16,0.48,3.56,2.16,3.56,4.45
		c0,2.74-1.68,4.93-5.3,4.93h-6.4V426.73z M61.3,433.81c2.22,0,3.01-1.2,3.01-2.94c0-1.71-0.89-2.94-3.39-2.94h-4.21v5.88H61.3z
		 M61.6,442.47c2.98,0,4.04-1.54,4.04-3.73s-1.2-3.76-4.07-3.76h-4.86v7.49H61.6z"/>
	<path d="M73,426.73h1.37v16.93H73V426.73z"/>
	<path d="M81.41,426.73h3.87c5.75,0,9.17,3.46,9.17,8.45c0,5.03-3.42,8.48-9.17,8.48h-3.87V426.73z M85.14,442.47
		c5.37,0,7.9-3.01,7.9-7.29c0-4.24-2.53-7.25-7.9-7.25h-2.36v14.54H85.14z"/>
	<path d="M100.47,426.73h3.87c5.75,0,9.17,3.46,9.17,8.45c0,5.03-3.42,8.48-9.17,8.48h-3.87V426.73z M104.2,442.47
		c5.37,0,7.9-3.01,7.9-7.29c0-4.24-2.53-7.25-7.9-7.25h-2.36v14.54H104.2z"/>
	<path d="M119.62,426.73h1.37v16.93h-1.37V426.73z"/>
	<path d="M130.66,431.45c-0.51-0.65-1.44-2.09-1.51-2.22c0,0.07,0.17,1.4,0.17,2.5v11.94h-1.3v-17.14h0.31l9.99,12.32
		c0.62,0.75,1.44,2.12,1.54,2.26c0-0.07-0.14-1.33-0.14-2.43V426.7h1.3v17.17h-0.31L130.66,431.45z"/>
	<path d="M147,435.18c0-5.03,3.9-8.72,8.66-8.72c2.46,0,4.58,0.82,5.99,2.33l-0.92,0.89c-1.16-1.27-2.84-2.02-5.06-2.02
		c-4.24,0-7.25,3.28-7.25,7.53c0,4.28,3.04,7.56,7.39,7.56c2.63,0,4.38-0.89,5.41-1.78v-3.87h-5.17v-1.2h6.47v5.61
		c-1.27,1.13-3.32,2.43-6.71,2.43C150.9,443.94,147,440.24,147,435.18z"/>
	<path d="M183.05,427.93h-5.47v-1.2h12.32v1.2h-5.47v15.74h-1.37V427.93z"/>
	<path d="M195.29,426.73h1.37v9.75h9.51v-9.75h1.37v16.93h-1.37v-5.99h-9.51v5.99h-1.37V426.73z"/>
	<path d="M219.98,426.52h0.31l6.98,17.14h-1.44l-1.23-3.08h-8.96l-1.23,3.08h-1.37L219.98,426.52z M224.12,439.39l-3.32-8.38
		c-0.27-0.65-0.62-2.05-0.65-2.19c-0.03,0.14-0.44,1.54-0.68,2.19l-3.35,8.38H224.12z"/>
	<path d="M234.61,427.93h-5.47v-1.2h12.32v1.2h-5.47v15.74h-1.37V427.93z"/>
	<path d="M257.32,426.52h0.27l7.77,10.09l7.73-10.09h0.27v17.14h-1.33v-11.53c0-1.06,0.14-2.6,0.17-2.77
		c-0.07,0.14-0.82,1.5-1.47,2.36l-5.27,6.77h-0.24l-5.2-6.77c-0.58-0.79-1.47-2.22-1.54-2.36c0,0.07,0.17,1.68,0.17,2.77v11.53
		h-1.33V426.52z"/>
	<path d="M285.81,426.52h0.31l6.98,17.14h-1.44l-1.23-3.08h-8.96l-1.23,3.08h-1.37L285.81,426.52z M289.95,439.39l-3.32-8.38
		c-0.27-0.65-0.62-2.05-0.65-2.19c-0.03,0.14-0.45,1.54-0.68,2.19l-3.35,8.38H289.95z"/>
	<path d="M300.44,427.93h-5.47v-1.2h12.32v1.2h-5.47v15.74h-1.37V427.93z"/>
	<path d="M317.39,427.93h-5.47v-1.2h12.32v1.2h-5.47v15.74h-1.37V427.93z"/>
	<path d="M329.63,426.73h10.06v1.2H331v8.55h7.8v1.2H331v4.79h9.03v1.2h-10.4V426.73z"/>
	<path d="M356.86,443.66h-1.57l-3.49-4.75c-0.58,0.14-1.23,0.21-1.92,0.21h-2.77v4.55h-1.37v-16.93h4.14c4.58,0,6.81,2.77,6.81,6.19
		c0,2.5-1.16,4.58-3.59,5.58L356.86,443.66z M349.78,437.92c4.07,0,5.54-2.26,5.54-5c0-2.74-1.47-4.99-5.54-4.99h-2.67v9.99H349.78z
		"/>
	<path d="M361.08,440.41l1.16-0.58c0.79,1.61,2.22,2.91,4.69,2.91c2.29,0,3.93-1.27,3.93-3.22s-1.06-2.94-3.46-4l-1.68-0.75
		c-2.16-0.96-3.49-2.22-3.49-4.41c0-2.43,1.98-3.9,4.34-3.9c2.29,0,3.66,1.09,4.55,2.39l-1.03,0.75c-0.75-1.13-1.74-1.98-3.52-1.98
		c-1.81,0-3.04,0.96-3.04,2.7c0,1.54,0.75,2.39,2.74,3.28l1.68,0.75c2.77,1.23,4.24,2.67,4.24,5.17c0,2.67-2.19,4.41-5.23,4.41
		C363.96,443.94,361.94,442.23,361.08,440.41z"/>
</g> -->
<g>
	<path class="st1" d="M223.94,209.82c-6.48,0-11.68-5.25-11.68-11.73V67.93c0-6.48,5.21-11.73,11.68-11.73s11.68,5.25,11.68,11.73
		v130.17C235.63,204.57,230.42,209.82,223.94,209.82z"/>
</g>
<g>
	<path class="st2" d="M316.29,188.65c-3.28,0-6.54-1.37-8.86-4.04l-44.95-51.68l44.5-50.52c4.3-4.85,11.71-5.29,16.55-1
		c4.85,4.3,5.29,11.71,1,16.55l-30.84,35.12l31.45,36.14c4.25,4.89,3.73,12.3-1.16,16.54C321.75,187.7,319.02,188.65,316.29,188.65z
		"/>
</g>
<g>
	<path class="st2" d="M137.27,185.19c-6.96,0-13.72-1.37-20.09-4.06c-6.15-2.6-11.66-6.32-16.4-11.05
		c-4.73-4.73-8.45-10.25-11.05-16.4c-2.69-6.37-4.06-13.13-4.06-20.09c0-6.96,1.37-13.72,4.06-20.09c2.6-6.15,6.32-11.66,11.05-16.4
		c4.73-4.73,10.25-8.45,16.4-11.05c6.37-2.69,13.13-4.06,20.09-4.06s13.72,1.37,20.09,4.06c6.15,2.6,11.66,6.32,16.4,11.05
		c4.73,4.73,8.45,10.25,11.05,16.4c2.69,6.37,4.06,13.13,4.06,20.09c0,6.96-1.37,13.72-4.06,20.09c-2.6,6.15-6.32,11.66-11.05,16.4
		c-4.73,4.73-10.25,8.45-16.4,11.05C150.99,183.83,144.23,185.19,137.27,185.19z M137.27,105.45c-15.52,0-28.14,12.63-28.14,28.14
		s12.63,28.14,28.14,28.14c15.52,0,28.14-12.63,28.14-28.14S152.79,105.45,137.27,105.45z"/>
</g>
<path class="st1" d="M309.87,236.91c-3.71-5.31-11.02-6.61-16.33-2.9c-0.8,0.56-1.61,1.11-2.41,1.65
	c-31.41,21.17-63.41,27.68-95.16,19.33c-12.84-3.38-23.1-8.64-29.44-12.46c-4.87-2.93-8.17-5.58-9.78-6.87l0,0
	c-0.34-0.23-0.78-0.55-1.12-0.78c0,0,0,0,0,0l0,0l0,0c-0.43-0.29-0.86-0.58-1.29-0.87c-5.31-3.71-12.62-2.41-16.33,2.9
	c-3.47,4.97-2.56,11.69,1.93,15.57l0,0c1.13,1.01,19.49,16.86,48.91,24.88c11.16,3.04,22.47,4.57,33.83,4.57
	c6.47,0,12.95-0.49,19.42-1.49c22.04-3.38,43.86-12.53,64.88-27.21c0.34-0.24,0.66-0.49,0.97-0.76
	C312.43,248.6,313.34,241.88,309.87,236.91z"/>
</svg>
